<svg xmlns="http://www.w3.org/2000/svg" viewBox="-32 149.4 64 64" enable-background="new -32 149.4 64 64"><path d="M32 185.4v-8l-9.6-4c-.3-.8-.5-1.5-.9-2.2l3.9-9.6-5.7-5.7-9.5 3.9c-.7-.4-1.5-.6-2.2-.9l-4.1-9.5h-8l-4 9.5c-.8.3-1.6.6-2.3.9l-9.5-3.8-5.7 5.7 3.9 9.4c-.4.8-.7 1.6-1 2.4l-9.4 4v8l9.4 3.9c.3.8.6 1.6 1 2.4l-3.8 9.5 5.7 5.7 9.4-3.9c.8.4 1.5.7 2.3.9l4 9.5h8l4-9.5c.8-.3 1.5-.6 2.2-.9l9.6 3.8 5.7-5.7-3.9-9.5c.3-.7.6-1.4.9-2.2l9.6-4.1zm-32 9.9c-7.7 0-13.9-6.2-13.9-13.9s6.2-13.9 13.9-13.9 13.9 6.2 13.9 13.9-6.3 13.9-13.9 13.9z"/></svg>