<?xml version="1.0" encoding="utf-8"?>
<!-- Generator: Adobe Illustrator 18.1.0, SVG Export Plug-In . SVG Version: 6.00 Build 0)  -->
<!DOCTYPE svg PUBLIC "-//W3C//DTD SVG 1.1//EN" "http://www.w3.org/Graphics/SVG/1.1/DTD/svg11.dtd">
<svg version="1.1" id="Layer_1" xmlns="http://www.w3.org/2000/svg" xmlns:xlink="http://www.w3.org/1999/xlink" x="0px" y="0px"
	 width="64px" height="64px" viewBox="0 75 64 64" enable-background="new 0 75 64 64" xml:space="preserve">
<path d="M64,110.9v-8l-9.6-4c-0.3-0.8-0.5-1.5-0.9-2.2l3.9-9.6l-5.7-5.7l-9.5,3.9c-0.7-0.4-1.5-0.6-2.2-0.9L35.9,75h-8l-4,9.5
	c-0.8,0.3-1.6,0.6-2.3,0.9l-9.5-3.8l-5.7,5.7l3.9,9.4c-0.4,0.8-0.7,1.6-1,2.4l-9.4,4v8l9.4,3.9c0.3,0.8,0.6,1.6,1,2.4l-3.8,9.5
	l5.7,5.7l9.4-3.9c0.8,0.4,1.5,0.7,2.3,0.9l4,9.5h8l4-9.5c0.8-0.3,1.5-0.6,2.2-0.9l9.6,3.8l5.7-5.7l-3.9-9.5c0.3-0.7,0.6-1.4,0.9-2.2
	L64,110.9L64,110.9z M32,120.8c-7.7,0-13.9-6.2-13.9-13.9S24.4,93.1,32,93.1s13.9,6.2,13.9,13.9S39.6,120.8,32,120.8z"/>
</svg>
